<?xml version="1.0" encoding="UTF-8"?>
<svg version="1.1" xmlns="http://www.w3.org/2000/svg" width="500" height="500">
<path d="M0 0 C165 0 330 0 500 0 C500 165 500 330 500 500 C335 500 170 500 0 500 C0 335 0 170 0 0 Z " fill="#000000" transform="translate(0,0)"/>
<path d="M0 0 C6.74304671 5.05728503 10.15219415 11.65662733 11.5 19.875 C11.58782273 21.66845375 11.62784408 23.46465184 11.62939453 25.26025391 C11.63254669 26.31129303 11.63569885 27.36233215 11.63894653 28.44522095 C11.6369223 29.56931366 11.63489807 30.69340637 11.6328125 31.8515625 C11.63376923 33.01376312 11.63472595 34.17596375 11.63571167 35.37338257 C11.6363913 37.8260707 11.63455217 40.27876065 11.63037109 42.73144531 C11.62501015 46.49287939 11.63032845 50.25419459 11.63671875 54.015625 C11.63605812 56.39843776 11.63477727 58.78125045 11.6328125 61.1640625 C11.63483673 62.29220367 11.63686096 63.42034485 11.63894653 64.58267212 C11.63421829 66.14977432 11.63421829 66.14977432 11.62939453 67.74853516 C11.62859894 68.6683316 11.62780334 69.58812805 11.62698364 70.53579712 C11.5 72.875 11.5 72.875 10.5 75.875 C11.38522339 75.73868164 11.38522339 75.73868164 12.28833008 75.59960938 C14.96270504 75.18909821 17.63759031 74.78201162 20.3125 74.375 C21.24126953 74.23191406 22.17003906 74.08882813 23.12695312 73.94140625 C24.01962891 73.80605469 24.91230469 73.67070312 25.83203125 73.53125 C27.06530151 73.34272461 27.06530151 73.34272461 28.32348633 73.15039062 C30.5 72.875 30.5 72.875 33.5 72.875 C33.49476318 71.61018799 33.48952637 70.34537598 33.48413086 69.04223633 C33.46585378 64.29159266 33.45448607 59.54095201 33.44506836 54.7902832 C33.44007955 52.74503047 33.43328611 50.69978122 33.42456055 48.65454102 C33.28417614 14.8714452 33.28417614 14.8714452 38.5 6.875 C43.30994803 2.29409712 46.50625802 1.56045272 52.96875 1.671875 C57.35960772 2.02422778 60.05028141 3.35760413 63.08984375 6.5390625 C69.51597704 14.42639481 70.9623913 22.62819538 70.93359375 32.59765625 C70.94376778 34.14975044 70.94376778 34.14975044 70.95414734 35.73320007 C70.96771018 39.13492061 70.95488404 42.53580485 70.9375 45.9375 C70.93493195 47.69120911 70.93493195 47.69120911 70.93231201 49.48034668 C70.88477075 68.580291 70.01357288 87.57795421 68.625 106.625 C68.53813934 107.82681915 68.45127869 109.02863831 68.36178589 110.26687622 C68.10867551 113.69447766 67.84315508 117.12079205 67.5703125 120.546875 C67.49310471 121.54885422 67.41589691 122.55083344 67.33634949 123.58317566 C66.25667172 136.3945761 64.50430743 150.78537211 54.5 159.875 C50.55127576 161.84936212 45.80383233 161.31329693 41.5 160.875 C36.18707766 158.26683812 32.6103253 154.65539319 30.4050293 149.13305664 C29.43537804 145.64236443 29.25662473 142.73871452 29.26953125 139.12109375 C29.27146484 137.85458984 29.27339844 136.58808594 29.27539062 135.28320312 C29.29375977 133.31770508 29.29375977 133.31770508 29.3125 131.3125 C29.31314453 129.99830078 29.31378906 128.68410156 29.31445312 127.33007812 C29.36309702 116.72030473 29.36309702 116.72030473 30.5 111.875 C29.10587891 112.0915625 29.10587891 112.0915625 27.68359375 112.3125 C26.44738281 112.498125 25.21117187 112.68375 23.9375 112.875 C22.71933594 113.060625 21.50117188 113.24625 20.24609375 113.4375 C16.62372152 113.86055077 13.14287954 113.95001425 9.5 113.875 C9.53480469 114.555625 9.56960938 115.23625 9.60546875 115.9375 C9.97015729 128.99682289 8.29716716 142.03792462 0.5 152.875 C-3.7225722 157.0975722 -7.52462671 158.68686921 -13.4375 159.25 C-17.79542107 159.10255154 -20.19905447 157.8091738 -23.5 154.875 C-29.90500074 146.58312067 -29.68212248 138.92427613 -29.6875 128.75 C-29.69974609 127.615625 -29.71199219 126.48125 -29.72460938 125.3125 C-29.73615558 118.15385582 -29.38802367 111.09829918 -28.79293823 103.96363831 C-27.80017578 92.05349329 -27.29344647 80.22214953 -27.19140625 68.27734375 C-27.18452475 67.52455894 -27.17764324 66.77177414 -27.17055321 65.99617767 C-27.10915575 59.01536732 -27.07087094 52.0344874 -27.04370117 45.0534668 C-27.02774251 41.17721089 -26.99749768 37.30126627 -26.95893669 33.42517281 C-26.94742511 31.97373325 -26.94135758 30.5222383 -26.94125557 29.0707531 C-26.94018722 17.96041812 -26.68507579 8.06007579 -18.5 -0.125 C-13.29268929 -2.72865535 -5.36527962 -1.72455416 0 0 Z " fill="#FCFCFC" transform="translate(308.5,167.125)"/>
<path d="M0 0 C1.19689453 -0.00833862 1.19689453 -0.00833862 2.41796875 -0.0168457 C11.24403703 0.09291726 18.21596873 1.95062185 24.9375 8 C26.74895181 11.72353983 26.68488996 15.25989263 26.0625 19.3125 C21.08484749 29.46691111 10.37457968 34.6742226 0.171875 38.35546875 C-3.32627076 39.44480361 -6.25897005 40.3125 -9.9375 40.3125 C-9.97508423 41.38395264 -9.97508423 41.38395264 -10.01342773 42.47705078 C-10.13137753 45.79729753 -10.2531779 49.11739316 -10.375 52.4375 C-10.41431641 53.56027344 -10.45363281 54.68304688 -10.49414062 55.83984375 C-10.53603516 56.96777344 -10.57792969 58.09570312 -10.62109375 59.2578125 C-10.65775146 60.27375488 -10.69440918 61.28969727 -10.73217773 62.33642578 C-10.85279135 64.67211344 -10.99356745 67.00718994 -11.18171692 69.33840942 C-11.88316687 78.0793183 -12.01285291 86.71147413 -11.89453125 95.4765625 C-11.88245512 96.88511294 -11.87146731 98.29367308 -11.86149597 99.70223999 C-11.81939059 105.60345623 -11.77118445 111.50444149 -11.69067383 117.40527344 C-11.64170856 121.04594607 -11.61304166 124.68632217 -11.59692955 128.32728195 C-11.58247244 130.35226516 -11.54655522 132.37705972 -11.50996399 134.40176392 C-11.48344901 143.83088305 -12.46161619 153.38201493 -18.5625 161 C-21.86722145 164.21775509 -23.66757683 164.52695628 -28.1875 164.6875 C-32.00573077 164.61273047 -33.83206773 164.36521614 -37.3125 162.625 C-44.29272361 155.19966068 -45.28151167 145.51349425 -45.5703125 135.83203125 C-45.60720688 134.76924454 -45.64410126 133.70645782 -45.68211365 132.61146545 C-46.1716776 116.38146562 -46.0480354 100.1369398 -46.00616455 83.90161133 C-45.99575031 79.42204269 -45.99132904 74.94246799 -45.98632812 70.46289062 C-45.97575141 61.74607767 -45.95879097 53.02929335 -45.9375 44.3125 C-46.84410622 44.32624664 -46.84410622 44.32624664 -47.76902771 44.340271 C-50.53218344 44.37685791 -53.29528801 44.39948063 -56.05859375 44.421875 C-57.00939819 44.43653809 -57.96020264 44.45120117 -58.93981934 44.46630859 C-65.63393073 44.50699345 -71.16551449 43.98908765 -76.9375 40.3125 C-77.80375 39.77625 -78.67 39.24 -79.5625 38.6875 C-81.90215646 34.6462752 -81.92326362 30.82661755 -80.9375 26.3125 C-75.29998527 16.08212183 -62.57787824 10.89981442 -51.91552734 7.70703125 C-34.98033448 2.85053449 -17.63169202 0.10093217 0 0 Z " fill="#FCFCFC" transform="translate(212.9375,164.6875)"/>
</svg>
